<svg xmlns="http://www.w3.org/2000/svg" xmlns:xlink="http://www.w3.org/1999/xlink" viewBox="0 0 434.08 67.77"><defs><style>.cls-1{fill:url(#Degradado_sin_nombre_20);}.cls-2{fill:#8cc63f;}</style><linearGradient id="Degradado_sin_nombre_20" y1="-483.9" x2="434.08" y2="-483.9" gradientTransform="matrix(1, 0, 0, -0.32, 0, -96.21)" gradientUnits="userSpaceOnUse"><stop offset="0" stop-color="#7ac943"/><stop offset="0.2" stop-color="#ff931e"/><stop offset="0.4" stop-color="#ffa600"/><stop offset="0.6" stop-color="#993904"/><stop offset="0.8" stop-color="#cc2113"/><stop offset="1"/></linearGradient></defs><title>levels</title><g id="Capa_2" data-name="Capa 2"><g id="Capa_1-2" data-name="Capa 1"><rect class="cls-1" y="46.71" width="434.08" height="21.06"/><path class="cls-2" d="M14.87,0A14.87,14.87,0,0,0,0,14.87c0,8.21,14.87,29.31,14.87,29.31s14.87-21.1,14.87-29.31A14.87,14.87,0,0,0,14.87,0ZM6.67,13.84A3.29,3.29,0,1,1,10,17.13,3.29,3.29,0,0,1,6.67,13.84Zm8.2,13.45a7.25,7.25,0,0,1-7.22-7.22H22.09A7.25,7.25,0,0,1,14.87,27.28Zm4.43-10.16a3.29,3.29,0,1,1,3.29-3.29A3.29,3.29,0,0,1,19.29,17.13Z"/><path d="M419.21,0a14.87,14.87,0,0,0-14.87,14.87c0,8.21,14.87,29.31,14.87,29.31s14.87-21.1,14.87-29.31A14.87,14.87,0,0,0,419.21,0ZM411,13.84a3.29,3.29,0,1,1,3.29,3.29A3.29,3.29,0,0,1,411,13.84Zm8.2,6.23a7.25,7.25,0,0,1,7.22,7.22s-3.35-4.71-7.22-4.71S412,27.28,412,27.28A7.25,7.25,0,0,1,419.21,20.07Zm4.43-2.94a3.29,3.29,0,1,1,3.29-3.29A3.29,3.29,0,0,1,423.63,17.13Z"/></g></g></svg>