<svg xmlns="http://www.w3.org/2000/svg" viewBox="0 0 63.62 33.44"><defs><style>.cls-1{fill:#fff;}</style></defs><title>userNight</title><g id="Capa_2" data-name="Capa 2"><g id="Capa_1-2" data-name="Capa 1"><path class="cls-1" d="M0,29.2V27.66a7.61,7.61,0,0,1,7.62-7.58s2,2,3.47,2,3.5-2,3.5-2a7.62,7.62,0,0,1,7.63,7.58V29.2C22.22,33.24,0,33.24,0,29.2Z"/><path class="cls-1" d="M11.11,4c-3.82.19-5.57,2.49-5.57,5.57l.37,4.73c.6,3.19,3.37,5.83,5.19,5.83s4.59-2.64,5.19-5.83l.37-4.73C16.68,6.44,14.93,4.14,11.11,4Z"/><path class="cls-1" d="M55.33,17.34A14.14,14.14,0,0,1,63.62,4.47a14.14,14.14,0,1,0,0,25.75A14.14,14.14,0,0,1,55.33,17.34Z"/><path class="cls-1" d="M28.29,33.44a2.5,2.5,0,0,1-2.36-3.34L36,1.66a2.5,2.5,0,1,1,4.71,1.67L30.64,31.78A2.5,2.5,0,0,1,28.29,33.44Z"/></g></g></svg>