<svg xmlns="http://www.w3.org/2000/svg" viewBox="0 0 84.34 44.04"><defs><style>.cls-1{fill:#333;}</style></defs><title>light_1</title><g id="Capa_2" data-name="Capa 2"><g id="caja"><path class="cls-1" d="M70,38.62l.52-2.22-6.43-3.6H83.25c.61,0,1.1-.75,1.1-1.69s-.49-1.69-1.1-1.69H64.12l6.43-3.6L70,23.6l-13.4,7.51Z"/><path class="cls-1" d="M70.94,5.42l-.52,2.22,6.43,3.6H57.72c-.61,0-1.1.75-1.1,1.69s.49,1.69,1.1,1.69H76.84l-6.43,3.6.52,2.22,13.4-7.51Z"/></g><g id="Capa_1-2" data-name="Capa 1"><path class="cls-1" d="M42.38,25.17l-12.09.57L19.54,44l-5.08-.24s3.17-11.62,3.75-13.71a8.39,8.39,0,0,0-.38-4.55l-11.35-.6s-1.77,3.85-2.56,4.57-3.18-.1-3.18-.1L0,22.09v-.14l.75-7.32s2.44-.82,3.22-.1S6.51,19.1,6.51,19.1l11.34-.6A8.4,8.4,0,0,0,18.22,14C17.64,11.86,14.47.24,14.47.24L19.55,0,30.29,18.31l12.09.57s4,.21,4.06,3.15C46.35,25,42.38,25.17,42.38,25.17Z"/></g></g></svg>